<mxfile host="app.diagrams.net" modified="2022-03-27T23:37:50.997Z" agent="5.0 (Windows NT 10.0; Win64; x64) AppleWebKit/537.36 (KHTML, like Gecko) Chrome/99.0.4844.82 Safari/537.36" etag="7kf7Ftr7msYepPEbzjO8" version="17.2.4" type="github">
  <diagram id="xtV3tqX54SvzgEhqQ9D0" name="Page-1">
    <mxGraphModel dx="1422" dy="705" grid="1" gridSize="10" guides="1" tooltips="1" connect="1" arrows="1" fold="1" page="1" pageScale="1" pageWidth="850" pageHeight="1100" math="0" shadow="0">
      <root>
        <mxCell id="0" />
        <mxCell id="1" parent="0" />
        <mxCell id="ysEqrzoeOzdG5qhHBI7h-1" value="" style="fontColor=#0066CC;verticalAlign=top;verticalLabelPosition=bottom;labelPosition=center;align=center;html=1;outlineConnect=0;fillColor=#CCCCCC;strokeColor=#6881B3;gradientColor=none;gradientDirection=north;strokeWidth=2;shape=mxgraph.networks.laptop;" vertex="1" parent="1">
          <mxGeometry x="30" y="360" width="100" height="55" as="geometry" />
        </mxCell>
        <mxCell id="ysEqrzoeOzdG5qhHBI7h-2" value="Kali&lt;br&gt;192.168.188.128" style="text;html=1;align=center;verticalAlign=middle;resizable=0;points=[];autosize=1;strokeColor=none;fillColor=none;" vertex="1" parent="1">
          <mxGeometry x="25" y="415" width="110" height="30" as="geometry" />
        </mxCell>
        <mxCell id="ysEqrzoeOzdG5qhHBI7h-5" value="" style="aspect=fixed;perimeter=ellipsePerimeter;html=1;align=center;shadow=0;dashed=0;spacingTop=3;image;image=img/lib/active_directory/windows_server_2.svg;" vertex="1" parent="1">
          <mxGeometry x="400" y="330" width="80" height="100" as="geometry" />
        </mxCell>
        <mxCell id="ysEqrzoeOzdG5qhHBI7h-6" value="Windows 2019" style="text;html=1;align=center;verticalAlign=middle;resizable=0;points=[];autosize=1;strokeColor=none;fillColor=none;" vertex="1" parent="1">
          <mxGeometry x="390" y="430" width="90" height="20" as="geometry" />
        </mxCell>
        <mxCell id="ysEqrzoeOzdG5qhHBI7h-11" value="" style="edgeStyle=orthogonalEdgeStyle;rounded=0;orthogonalLoop=1;jettySize=auto;html=1;" edge="1" parent="1" source="ysEqrzoeOzdG5qhHBI7h-7" target="ysEqrzoeOzdG5qhHBI7h-10">
          <mxGeometry relative="1" as="geometry" />
        </mxCell>
        <mxCell id="ysEqrzoeOzdG5qhHBI7h-7" value="" style="verticalLabelPosition=bottom;html=1;verticalAlign=top;align=center;strokeColor=none;fillColor=#00BEF2;shape=mxgraph.azure.computer;pointerEvents=1;" vertex="1" parent="1">
          <mxGeometry x="590" y="285" width="90" height="75" as="geometry" />
        </mxCell>
        <mxCell id="ysEqrzoeOzdG5qhHBI7h-10" value="" style="verticalLabelPosition=bottom;html=1;verticalAlign=top;align=center;strokeColor=none;fillColor=#00BEF2;shape=mxgraph.azure.computer;pointerEvents=1;" vertex="1" parent="1">
          <mxGeometry x="590" y="440" width="90" height="75" as="geometry" />
        </mxCell>
        <mxCell id="ysEqrzoeOzdG5qhHBI7h-12" value="Windows 10" style="text;html=1;align=center;verticalAlign=middle;resizable=0;points=[];autosize=1;strokeColor=none;fillColor=none;" vertex="1" parent="1">
          <mxGeometry x="595" y="265" width="80" height="20" as="geometry" />
        </mxCell>
        <mxCell id="ysEqrzoeOzdG5qhHBI7h-13" value="metasploitable&lt;br&gt;192.168.188.140" style="text;html=1;align=center;verticalAlign=middle;resizable=0;points=[];autosize=1;strokeColor=none;fillColor=none;" vertex="1" parent="1">
          <mxGeometry x="580" y="515" width="110" height="30" as="geometry" />
        </mxCell>
        <mxCell id="ysEqrzoeOzdG5qhHBI7h-14" value="&lt;br&gt;192.168.188.139" style="text;html=1;align=center;verticalAlign=middle;resizable=0;points=[];autosize=1;strokeColor=none;fillColor=none;" vertex="1" parent="1">
          <mxGeometry x="580" y="235" width="110" height="30" as="geometry" />
        </mxCell>
      </root>
    </mxGraphModel>
  </diagram>
</mxfile>
